<svg xmlns="http://www.w3.org/2000/svg" width="125.016" height="51.567" viewBox="0 0 125.016 51.567">
  <g id="Gruppe_1677" transform="translate(0 -0.567)">
    <path id="Pfad_3346" d="M34.283.712H0v51H34.283V40.736H11.854v-9.7H31.438V20.054H11.854V11.686H34.283Z" fill="#fff" fill-rule="evenodd"/>
    <path id="Pfad_3347" d="M44.371,47.451c2.973,2.91,7.138,4.262,11.924,4.263h.028l2.961.014V40.786H56.336c-2.219,0-3.233-.53-3.737-1.046-.52-.532-1.054-1.618-1.054-3.937a4.9,4.9,0,0,1,1.175-3.512,4.259,4.259,0,0,1,3.208-1.169H66.157V20.161H56.3a16.733,16.733,0,0,0-11.658,4.323A15.138,15.138,0,0,0,39.992,35.7C39.992,40.426,41.388,44.532,44.371,47.451Z" fill="#fff" fill-rule="evenodd"/>
    <path id="Pfad_3348" d="M82.272.567H58.032V12.325H64.2V40.377H58.032V52.134H82.272V40.377H76.107V12.325h6.166Z" fill="#1976d2" fill-rule="evenodd"/>
    <path id="Pfad_3349" d="M101.5,1.018h.036c7.072,0,12.833,1.994,16.828,5.9a23.367,23.367,0,0,1,6.638,16.386v.736c0,.258,0,1.624,0,2.766,0,.716.006,1.343.006,1.553,0,1.091,0,2.182,0,2.266,0,6.313-2.948,11.375-7.035,15.23s-9.811,6.04-16.445,6.04H89V40.839h13.133a10.045,10.045,0,0,0,7.481-2.869,10.453,10.453,0,0,0,3.4-7.5c0-.1-.006-1.861-.009-3.656,0-1.854,0-3.742-.006-3.861a12.41,12.41,0,0,0-3.208-8.271c-1.653-1.692-4.286-2.654-8.312-2.654H88.994V1l12.485.018h.026Z" fill="#fff"/>
  </g>
</svg>
